<?xml version="1.0" encoding="UTF-8" standalone="no"?>
<svg
   width="106mm"
   height="22.65mm"
   viewBox="0 0 106 22.65"
   version="1.1"
   id="svg16"
   sodipodi:docname="2412.svg"
   inkscape:version="1.4 (86a8ad7, 2024-10-11)"
   xmlns:inkscape="http://www.inkscape.org/namespaces/inkscape"
   xmlns:sodipodi="http://sodipodi.sourceforge.net/DTD/sodipodi-0.dtd"
   xmlns="http://www.w3.org/2000/svg"
   xmlns:svg="http://www.w3.org/2000/svg"
   xmlns:rdf="http://www.w3.org/1999/02/22-rdf-syntax-ns#"
   xmlns:cc="http://creativecommons.org/ns#"
   xmlns:dc="http://purl.org/dc/elements/1.1/">
  <defs
     id="defs16" />
  <sodipodi:namedview
     id="namedview16"
     pagecolor="#505050"
     bordercolor="#ffffff"
     borderopacity="1"
     inkscape:showpageshadow="0"
     inkscape:pageopacity="0"
     inkscape:pagecheckerboard="1"
     inkscape:deskcolor="#505050"
     inkscape:document-units="mm"
     inkscape:zoom="2"
     inkscape:cx="23"
     inkscape:cy="116.25"
     inkscape:window-width="2400"
     inkscape:window-height="1261"
     inkscape:window-x="2391"
     inkscape:window-y="-9"
     inkscape:window-maximized="1"
     inkscape:current-layer="svg16" />
  <title
     id="title1">Airfoil plot (user-001) NACA 2412 Airfoil M=2.0% P=40.0% T=12.0% by AirfoilTools.com</title>
  <g
     transform="matrix(1.0000016,0,0,-0.9999997,-49.979965,1.8450013)"
     id="g13"
     style="fill:none;stroke:#000000;stroke-opacity:1">
    <path
       fill="none"
       stroke="#ff0000"
       stroke-width="0.1"
       d="M 100,0 99.85,0.03 99.39,0.13 98.63,0.29 97.58,0.51 96.23,0.78 94.6,1.11 92.69,1.48 90.52,1.89 88.11,2.33 85.45,2.8 82.58,3.28 79.5,3.78 76.25,4.27 72.82,4.76 69.25,5.25 65.57,5.71 61.78,6.14 57.92,6.55 54,6.91 50.06,7.23 46.11,7.5 42.19,7.71 38.3,7.85 34.47,7.92 30.73,7.89 27.11,7.78 23.64,7.58 20.33,7.29 17.22,6.93 14.31,6.49 11.63,5.99 9.2,5.43 7.03,4.83 5.13,4.18 3.52,3.51 2.21,2.82 1.19,2.11 0.48,1.4 0.09,0.7 0,0 l 0.22,-0.67 0.53,-0.61 0.82,-0.56 1.12,-0.5 1.4,-0.44 1.68,-0.39 1.94,-0.32 2.19,-0.26 2.43,-0.2 2.65,-0.15 2.86,-0.09 3.05,-0.04 h 3.22 l 3.38,0.05 3.51,0.08 3.63,0.11 3.72,0.13 3.81,0.15 3.88,0.17 3.9,0.2 3.91,0.21 3.88,0.23 3.84,0.23 3.77,0.24 3.67,0.24 3.57,0.24 3.42,0.23 3.27,0.22 3.09,0.21 2.9,0.21 2.67,0.19 2.45,0.17 2.19,0.16 1.93,0.14 1.66,0.13 1.37,0.1 1.08,0.08 0.77,0.06 0.46,0.04 L 100,0"
       id="path11"
       style="fill:none;stroke:#000000;stroke-opacity:1" />
  </g>
  <metadata
     id="metadata16">
    <rdf:RDF>
      <cc:Work
         rdf:about="">
        <dc:title>Airfoil plot (user-001) NACA 2412 Airfoil M=2.0% P=40.0% T=12.0% by AirfoilTools.com</dc:title>
      </cc:Work>
    </rdf:RDF>
  </metadata>
</svg>
